<svg width="141" height="24" viewBox="0 0 141 24" fill="none" xmlns="http://www.w3.org/2000/svg">
<g clip-path="url(#clip0_17_7289)">
<path d="M13.2121 6.07429C12.1266 5.4469 10.8102 5.09835 9.23967 5.09835C7.66919 5.09835 6.6299 5.35395 5.49822 5.86516C4.38964 6.37637 3.44273 7.07347 2.70368 7.97971C1.96463 8.88594 1.47963 9.88512 1.22558 11.0237C0.902241 12.5574 0.948432 13.9283 1.38724 15.1134C1.82606 16.2985 2.51892 17.2512 3.51202 17.9018C4.50512 18.5524 5.68299 18.901 7.02252 18.901C8.36205 18.901 8.91634 18.7151 9.81706 18.3201C10.6947 17.9251 11.4568 17.3674 12.0573 16.6006L12.0111 16.8794C11.6878 18.4363 11.1335 19.5749 10.3483 20.272C9.56301 20.9691 8.43134 21.3176 6.95323 21.3176C5.47513 21.3176 4.85155 21.2014 4.06631 20.9691C3.28107 20.7367 2.51892 20.3882 1.75677 19.9234L0.532715 22.0612C1.36415 22.6189 2.28796 23.0371 3.30416 23.3392C4.32036 23.6413 5.45203 23.7807 6.69918 23.7807C8.89324 23.7807 10.6485 23.2928 12.0111 22.2703C13.3737 21.2479 14.2976 19.5981 14.7826 17.2512L15.6602 13.1615C16.0066 11.4885 15.9604 10.0478 15.4985 8.86271C15.0366 7.65439 14.2514 6.72492 13.189 6.07429H13.2121ZM12.8657 12.5341C12.5885 13.7192 12.0111 14.6719 11.0873 15.3922C10.1866 16.1126 9.1011 16.4611 7.83086 16.4611C6.56061 16.4611 6.1218 16.252 5.49822 15.8337C4.87465 15.4155 4.43583 14.8346 4.18179 14.091C3.95083 13.3474 3.92774 12.4876 4.1356 11.5582C4.41274 10.3499 5.01322 9.39715 5.91394 8.67681C6.83775 7.95647 7.90014 7.60792 9.14729 7.60792C10.3944 7.60792 10.8794 7.81705 11.503 8.23531C12.1266 8.65358 12.5654 9.2345 12.8195 9.97807C13.0735 10.7216 13.0735 11.5582 12.8657 12.5341Z" fill="#001E37"/>
<path d="M28.1316 12.7897H28.1085C27.6004 15.2064 26.2378 16.4379 24.0668 16.4379C21.8958 16.4379 21.942 16.0429 21.4108 15.2761C20.8796 14.5092 20.7642 13.4171 21.0644 12.0461L22.427 5.56309H19.4939L18.1775 11.8138C17.8772 13.2545 17.9234 14.5092 18.3161 15.5781C18.7087 16.647 19.3784 17.4603 20.3484 18.0645C21.3185 18.6454 22.4732 18.9475 23.8589 18.9475C25.9375 18.9475 27.5542 18.4363 28.709 17.3674C29.8637 16.3217 30.6028 14.9507 30.9492 13.3009L32.5659 5.58632H29.6328L28.1316 12.7897Z" fill="#001E37"/>
<path d="M32.8892 18.4595H35.7992L38.5245 5.56309H35.6145L32.8892 18.4595Z" fill="#001E37"/>
<path d="M38.7554 0.0792236L35.9378 3.63445H38.7323L42.8433 0.0792236H38.7554Z" fill="#001E37"/>
<path d="M51.8507 6.09753C50.7652 5.4469 49.4488 5.09835 47.8783 5.09835C46.3078 5.09835 45.2685 5.35395 44.1599 5.86516C43.0283 6.37637 42.1044 7.07347 41.3654 7.97971C40.6263 8.86271 40.1413 9.88512 39.8873 11.0237C39.564 12.5574 39.6101 13.9283 40.049 15.1134C40.4878 16.2985 41.1806 17.2279 42.1737 17.9018C43.1668 18.5757 44.3447 18.901 45.6842 18.901C47.0238 18.901 47.7166 18.6686 48.6635 18.2271C49.6104 17.7856 50.3726 17.135 50.9731 16.2752L50.5112 18.4363H53.2364L54.345 13.1847C54.6914 11.5117 54.6452 10.071 54.1833 8.88594C53.7214 7.67763 52.9362 6.74816 51.8738 6.09753H51.8507ZM51.435 12.5341C51.1578 13.7192 50.5805 14.6719 49.6566 15.3922C48.7559 16.1126 47.6704 16.4611 46.4002 16.4611C45.1299 16.4611 44.6911 16.252 44.0676 15.8337C43.444 15.4155 43.0052 14.8346 42.7511 14.091C42.5202 13.3474 42.4971 12.4876 42.7049 11.5582C42.9821 10.3499 43.5825 9.39715 44.4833 8.67681C45.4071 7.95647 46.4695 7.60792 47.7166 7.60792C48.9638 7.60792 49.4488 7.81705 50.0723 8.23531C50.6959 8.65358 51.1347 9.2345 51.3888 9.97807C51.6428 10.7216 51.6428 11.5582 51.435 12.5341Z" fill="#001E37"/>
<path d="M71.805 5.30747C71.3431 5.21453 70.8119 5.16805 70.2576 5.16805C68.6178 5.16805 67.2321 5.58632 66.0773 6.42284C64.9226 7.25937 64.1604 8.65357 63.7678 10.559L62.1049 18.4595H65.0149L66.5854 11.047C66.8395 9.86189 67.2783 9.00212 67.9019 8.49092C68.5254 7.97971 69.3569 7.70086 70.3731 7.70086C71.3893 7.70086 71.6202 7.81705 72.1514 8.02618L73.1676 5.74897C72.7519 5.56308 72.29 5.42366 71.8281 5.30747H71.805Z" fill="#001E37"/>
<path d="M86.4012 9.4901H86.4474C86.6322 8.63034 86.5398 7.86352 86.1703 7.21289C85.8008 6.53903 85.2003 6.02782 84.3688 5.65603C83.5374 5.28424 82.5212 5.09835 81.2972 5.09835C80.0731 5.09835 78.4795 5.35395 77.2786 5.86516C76.0545 6.37637 75.0614 7.11995 74.2531 8.04942C73.4447 8.97889 72.9135 10.0943 72.6595 11.3723C72.3592 12.8362 72.4747 14.1375 72.9366 15.2761C73.3985 16.4147 74.2069 17.2977 75.3155 17.9483C76.424 18.5989 77.7867 18.9242 79.3802 18.9242C80.9738 18.9242 83.0293 18.506 84.5998 17.6927L83.7453 15.4155C82.2672 16.1126 80.8583 16.4379 79.5188 16.4379C78.1793 16.4379 77.3709 16.2055 76.6781 15.6943C75.9852 15.2063 75.5464 14.486 75.4309 13.5565C75.8235 13.5565 76.2855 13.5565 76.8167 13.5565C82.6367 13.5565 85.8239 12.1856 86.4012 9.46686V9.4901ZM77.5095 8.58386C78.5026 7.88676 79.7267 7.56145 81.1355 7.56145C82.5443 7.56145 82.706 7.70087 83.1679 7.97971C83.6067 8.25855 83.7684 8.67681 83.6529 9.21126C83.4912 9.90836 82.8445 10.466 81.7129 10.8378C80.5812 11.2096 79.0107 11.3955 77.0014 11.3955H75.5926C75.8697 10.2104 76.4933 9.28097 77.5095 8.58386Z" fill="#001E37"/>
<path d="M100.212 6.07429V6.12076C99.127 5.4469 97.7874 5.09835 96.1939 5.09835C94.6003 5.09835 92.4293 5.63279 91.0205 6.70168C89.6117 7.77058 88.7109 9.25773 88.3183 11.1167L85.8009 22.9674H88.7109L90.1429 16.1126C90.5817 16.9956 91.2514 17.6694 92.106 18.1574C92.9836 18.6454 93.9998 18.901 95.1776 18.901C96.3555 18.901 97.5796 18.6454 98.642 18.1342C99.7043 17.623 100.605 16.9026 101.344 15.9964C102.083 15.0902 102.568 14.0677 102.799 12.9059C103.099 11.3955 103.03 10.0478 102.568 8.86271C102.106 7.67763 101.321 6.74816 100.212 6.07429ZM99.9815 12.5341C99.7044 13.7192 99.127 14.6719 98.2032 15.3922C97.3024 16.1126 96.2169 16.4611 94.9467 16.4611C93.6765 16.4611 93.2376 16.252 92.6141 15.8337C91.9905 15.4155 91.5517 14.8346 91.2976 14.091C91.0667 13.3474 91.0436 12.4876 91.2514 11.5582C91.5286 10.3499 92.1291 9.39715 93.0298 8.67681C93.9536 7.95647 95.016 7.60792 96.2631 7.60792C97.5103 7.60792 97.9953 7.81705 98.6189 8.23531C99.2424 8.65358 99.6813 9.23449 99.9353 9.97807C100.189 10.7216 100.189 11.5582 99.9815 12.5341Z" fill="#001E37"/>
<path d="M108.942 7.88676H108.989C109.381 7.60792 109.936 7.4685 110.698 7.4685C111.46 7.4685 112.176 7.58468 112.823 7.81705C113.469 8.04942 114.07 8.39797 114.601 8.83947L116.102 7.14318C115.432 6.49255 114.67 5.98134 113.769 5.65603C112.869 5.30748 111.876 5.14482 110.79 5.14482C109.705 5.14482 108.25 5.42366 107.303 6.00458C106.356 6.5855 105.802 7.39879 105.594 8.44444C105.409 9.39715 105.594 10.2569 106.148 11.0005C106.702 11.7441 107.695 12.3017 109.104 12.6735L110.328 12.9756C111.09 13.1615 111.668 13.3706 112.014 13.5798C112.384 13.7889 112.592 14.0213 112.684 14.2536C112.776 14.486 112.776 14.7648 112.73 15.0205C112.661 15.4387 112.407 15.8105 111.968 16.1358C111.529 16.4379 110.883 16.6006 110.028 16.6006C109.173 16.6006 108.134 16.4379 107.395 16.1358C106.656 15.8105 105.94 15.369 105.224 14.7881L103.607 16.6238C104.416 17.3441 105.34 17.9251 106.425 18.3433C107.511 18.7616 108.665 18.9707 109.889 18.9707C111.113 18.9707 112.661 18.6454 113.631 17.9715C114.601 17.3209 115.201 16.5076 115.409 15.5317C115.571 14.8346 115.548 14.2072 115.363 13.6262C115.178 13.0453 114.786 12.5109 114.162 12.0461C113.538 11.5814 112.638 11.1864 111.437 10.8611L110.305 10.559C109.381 10.3034 108.804 10.0245 108.527 9.7457C108.273 9.46686 108.18 9.14155 108.25 8.76976C108.319 8.44444 108.55 8.14236 108.942 7.88676Z" fill="#001E37"/>
<path d="M131.414 7.4685C130.837 6.72492 130.098 6.16724 129.151 5.74898C128.227 5.33071 127.142 5.12158 125.918 5.12158C124.693 5.12158 123.262 5.37719 122.107 5.91163C120.952 6.44608 120.005 7.16642 119.243 8.09589C118.481 9.02536 117.973 10.0943 117.719 11.3258C117.511 12.325 117.511 13.2777 117.719 14.1839C117.927 15.0902 118.319 15.9035 118.897 16.6238C119.474 17.3441 120.236 17.9018 121.16 18.3201C122.084 18.7383 123.169 18.9475 124.393 18.9475C125.617 18.9475 127.072 18.6919 128.204 18.1574C129.359 17.6462 130.306 16.9026 131.068 15.9732C131.83 15.0437 132.338 13.9748 132.569 12.7665C132.777 11.7673 132.777 10.8146 132.569 9.90836C132.361 9.00213 131.969 8.18884 131.391 7.4685H131.414ZM129.728 12.3482C129.474 13.5798 128.874 14.579 127.927 15.2993C126.98 16.0429 125.848 16.3914 124.532 16.3914C123.215 16.3914 122.73 16.1823 122.061 15.764C121.414 15.3458 120.952 14.7881 120.698 14.0677C120.444 13.3474 120.398 12.5574 120.606 11.6511C120.883 10.4196 121.483 9.42039 122.43 8.70005C123.377 7.97971 124.486 7.60792 125.779 7.60792C127.072 7.60792 127.58 7.81705 128.25 8.23531C128.897 8.65357 129.359 9.21126 129.613 9.9316C129.867 10.6519 129.89 11.442 129.705 12.3482H129.728Z" fill="#001E37"/>
<path d="M137.535 1.0319L133.839 18.4595H136.749L140.445 1.0319H137.535Z" fill="#001E37"/>
</g>
<defs>
<clipPath id="clip0_17_7289">
<rect width="140" height="24" fill="white" transform="translate(0.5)"/>
</clipPath>
</defs>
</svg>
